<svg width="1200" height="760" viewBox="0 0 1200 760" fill="none" xmlns="http://www.w3.org/2000/svg">
  <rect width="1200" height="760" rx="24" fill="#F8FAFC"/>
  <rect x="32" y="32" width="1136" height="696" rx="20" fill="white" stroke="#E2E8F0" stroke-width="2"/>

  <text x="72" y="96" fill="#0F172A" font-family="Segoe UI, Arial, sans-serif" font-size="34" font-weight="700">
    wechat-link overview
  </text>
  <text x="72" y="132" fill="#475569" font-family="Segoe UI, Arial, sans-serif" font-size="18">
    Protocol-first Python SDK for iLink-compatible Weixin Bot integration
  </text>

  <rect x="72" y="170" width="186" height="36" rx="18" fill="#EFF6FF"/>
  <text x="103" y="193" fill="#1D4ED8" font-family="Segoe UI, Arial, sans-serif" font-size="16" font-weight="600">
    SDK-first boundary
  </text>

  <rect x="274" y="170" width="176" height="36" rx="18" fill="#ECFDF5"/>
  <text x="305" y="193" fill="#047857" font-family="Segoe UI, Arial, sans-serif" font-size="16" font-weight="600">
    Thin relay only
  </text>

  <rect x="468" y="170" width="222" height="36" rx="18" fill="#F5F3FF"/>
  <text x="500" y="193" fill="#6D28D9" font-family="Segoe UI, Arial, sans-serif" font-size="16" font-weight="600">
    Media path included
  </text>

  <rect x="72" y="252" width="370" height="104" rx="22" fill="#F8FAFC" stroke="#CBD5E1" stroke-width="2"/>
  <text x="108" y="298" fill="#0F172A" font-family="Segoe UI, Arial, sans-serif" font-size="28" font-weight="700">
    Your App / LLM / Workflow
  </text>
  <text x="108" y="330" fill="#475569" font-family="Segoe UI, Arial, sans-serif" font-size="18">
    Business logic, AI orchestration, internal services
  </text>

  <rect x="72" y="414" width="370" height="124" rx="22" fill="#EEF4FF" stroke="#93C5FD" stroke-width="2"/>
  <text x="108" y="468" fill="#1D4ED8" font-family="Segoe UI, Arial, sans-serif" font-size="30" font-weight="700">
    wechat-link SDK
  </text>
  <text x="108" y="500" fill="#1E40AF" font-family="Segoe UI, Arial, sans-serif" font-size="18">
    Login primitives, polling, typing, media upload, sendmessage
  </text>

  <rect x="504" y="394" width="232" height="76" rx="18" fill="#F8FAFC" stroke="#CBD5E1" stroke-width="2"/>
  <text x="549" y="439" fill="#0F172A" font-family="Segoe UI, Arial, sans-serif" font-size="24" font-weight="700">
    Optional Relay
  </text>

  <rect x="72" y="594" width="256" height="92" rx="22" fill="#EFF6FF" stroke="#93C5FD" stroke-width="2"/>
  <text x="108" y="645" fill="#1E3A8A" font-family="Segoe UI, Arial, sans-serif" font-size="28" font-weight="700">
    iLink Bot API
  </text>

  <rect x="358" y="594" width="320" height="92" rx="22" fill="#ECFDF5" stroke="#86EFAC" stroke-width="2"/>
  <text x="398" y="645" fill="#047857" font-family="Segoe UI, Arial, sans-serif" font-size="28" font-weight="700">
    CDN Upload / Download
  </text>

  <rect x="712" y="594" width="216" height="92" rx="22" fill="#F5F3FF" stroke="#C4B5FD" stroke-width="2"/>
  <text x="742" y="633" fill="#6D28D9" font-family="Segoe UI, Arial, sans-serif" font-size="24" font-weight="700">
    AES-128-ECB
  </text>
  <text x="751" y="660" fill="#7C3AED" font-family="Segoe UI, Arial, sans-serif" font-size="16">
    media encryption path
  </text>

  <rect x="804" y="252" width="302" height="80" rx="18" fill="#F8FAFC" stroke="#E2E8F0" stroke-width="2"/>
  <circle cx="840" cy="292" r="8" fill="#2563EB"/>
  <text x="862" y="299" fill="#0F172A" font-family="Segoe UI, Arial, sans-serif" font-size="20" font-weight="600">
    QR login primitives
  </text>

  <rect x="804" y="350" width="302" height="80" rx="18" fill="#F8FAFC" stroke="#E2E8F0" stroke-width="2"/>
  <circle cx="840" cy="390" r="8" fill="#0F766E"/>
  <text x="862" y="397" fill="#0F172A" font-family="Segoe UI, Arial, sans-serif" font-size="20" font-weight="600">
    Long polling + cursor store
  </text>

  <rect x="804" y="448" width="302" height="80" rx="18" fill="#F8FAFC" stroke="#E2E8F0" stroke-width="2"/>
  <circle cx="840" cy="488" r="8" fill="#7C3AED"/>
  <text x="862" y="495" fill="#0F172A" font-family="Segoe UI, Arial, sans-serif" font-size="20" font-weight="600">
    Text, typing, context_token
  </text>

  <rect x="804" y="546" width="302" height="80" rx="18" fill="#F8FAFC" stroke="#E2E8F0" stroke-width="2"/>
  <circle cx="840" cy="586" r="8" fill="#DC2626"/>
  <text x="862" y="593" fill="#0F172A" font-family="Segoe UI, Arial, sans-serif" font-size="20" font-weight="600">
    Image, file, video, voice
  </text>

  <path d="M256 356L256 414" stroke="#94A3B8" stroke-width="4" stroke-linecap="round"/>
  <path d="M620 470L620 594" stroke="#94A3B8" stroke-width="4" stroke-linecap="round"/>
  <path d="M256 538L256 594" stroke="#94A3B8" stroke-width="4" stroke-linecap="round"/>
  <path d="M442 470L504 432" stroke="#94A3B8" stroke-width="4" stroke-linecap="round"/>
  <path d="M736 432L804 432" stroke="#94A3B8" stroke-width="4" stroke-linecap="round"/>
  <path d="M442 500L804 500" stroke="#94A3B8" stroke-width="4" stroke-linecap="round"/>
  <path d="M678 640L712 640" stroke="#94A3B8" stroke-width="4" stroke-linecap="round"/>
</svg>
